<svg width="518" height="463" viewBox="0 0 218 463" fill="none" xmlns="http://www.w3.org/2000/svg">
<g clip-path="url(#clip0_1_1229)">
<path d="M4.7832 414.537V278.308L132.603 318.672V459.947L4.7832 414.537Z" fill="white"/>
<path d="M7.30603 414.562V278.333L4.11053 280.764L115.953 316.082L131.93 321.128L130.08 318.698V459.972L133.276 457.533L21.1644 417.682L5.456 412.098C2.38665 411.014 1.0664 415.883 4.11053 416.967L116.222 456.793L131.93 462.377C132.303 462.48 132.694 462.496 133.074 462.424C133.453 462.352 133.811 462.194 134.12 461.961C134.429 461.729 134.68 461.429 134.855 461.084C135.029 460.739 135.122 460.358 135.126 459.972V318.698C135.115 318.148 134.93 317.615 134.598 317.177C134.266 316.739 133.803 316.417 133.276 316.259L21.4335 280.94L5.456 275.895C5.08079 275.791 4.68665 275.775 4.30442 275.849C3.92219 275.923 3.56225 276.085 3.25277 276.321C2.94329 276.557 2.69267 276.861 2.52052 277.211C2.34838 277.56 2.25939 277.944 2.26051 278.333V414.562C2.26051 417.783 7.30603 417.783 7.30603 414.562Z" fill="#1A1A1A"/>
<path d="M132.603 318.672L204.081 266.535V408.651L132.603 459.947V318.672Z" fill="white"/>
<path d="M133.873 320.85L196.387 275.256L205.351 268.713L201.558 266.561V408.676L202.811 406.498L140.407 451.277L131.333 457.794L135.126 459.972V318.698C135.126 315.452 130.08 315.443 130.08 318.698V459.972C130.08 461.746 132.275 463.294 133.873 462.15L171.319 435.241L196.278 417.329L203.518 412.132C204.905 411.14 206.268 410.45 206.604 408.634C207.184 405.48 206.604 401.68 206.604 398.492V266.561C206.604 264.795 204.401 263.197 202.811 264.383L140.297 309.952L131.333 316.494C128.735 318.386 131.249 322.768 133.873 320.85Z" fill="#1A1A1A"/>
<path d="M4.7832 278.308L77.1023 222.807L204.081 266.535L132.603 318.672L4.7832 278.308Z" fill="white"/>
<path d="M6.05298 280.486L40.5307 254.006L64.8585 235.337L73.5956 228.61C74.4954 227.92 77.6573 226.281 78.0609 225.179C78.3889 224.279 76.6566 225.549 76.5388 225.255C76.6061 225.423 77.5816 225.599 77.7414 225.675C79.5157 226.466 81.4919 226.962 83.3335 227.592L104.499 234.883L164.718 255.629L203.4 268.957L202.803 264.349L167.737 289.921L143.787 307.387L135.126 313.736C134.798 313.98 131.392 316.032 131.434 316.435C131.375 315.864 133.73 316.89 132.981 316.133C132.468 315.883 131.922 315.71 131.358 315.62L125.094 313.652L103.28 306.765L43.6673 287.937L5.45593 275.87C2.35294 274.894 1.02428 279.763 4.11046 280.738L96.6116 309.96L120.586 317.529C124.118 318.647 128.045 320.539 131.737 321.052C134.899 321.489 138.674 317.327 140.987 315.611L163.465 299.213L205.284 268.713C205.698 268.452 206.029 268.078 206.237 267.636C206.446 267.193 206.523 266.7 206.46 266.214C206.397 265.729 206.197 265.271 205.883 264.896C205.569 264.521 205.153 264.244 204.687 264.097L111.757 232.083L88.0763 223.926C84.8808 222.833 81.1639 220.84 77.8002 220.386C74.4366 219.932 70.0385 225.078 67.7092 226.869L44.6512 244.528L3.51341 276.13C0.965421 278.073 3.47977 282.462 6.05298 280.486Z" fill="#1A1A1A"/>
<path d="M34.2153 189.171H167.081V313.627L34.2153 310.263V189.171Z" fill="white"/>
<path d="M34.2154 191.719H167.081L164.558 189.196V313.652L167.081 311.129L50.4704 308.152L34.2154 307.766L36.7381 310.288V189.196C36.7381 185.95 31.6926 185.942 31.6926 189.196V310.288C31.7055 310.953 31.9755 311.588 32.4458 312.058C32.9162 312.528 33.5504 312.798 34.2154 312.811L150.826 315.763L167.081 316.175C167.75 316.175 168.391 315.909 168.865 315.436C169.338 314.963 169.603 314.321 169.603 313.652V189.196C169.603 188.527 169.338 187.885 168.865 187.412C168.391 186.939 167.75 186.673 167.081 186.673H34.2154C30.9694 186.673 30.961 191.719 34.2154 191.719Z" fill="#1A1A1A"/>
<path d="M34.2153 189.171L81.3068 131.988H214.172L167.081 189.171H34.2153Z" fill="white"/>
<path d="M35.9982 190.953L62.4619 158.822L78.7253 139.069C79.8437 137.715 82.089 135.882 82.7113 134.225C83.2999 132.737 81.8704 135.327 81.3742 134.511C81.3742 134.587 82.2151 134.511 82.2908 134.511C86.4954 135.125 91.2298 134.511 95.4512 134.511H214.172L212.389 130.197L185.926 162.329L169.503 182.275C168.502 183.495 166.139 185.454 165.626 186.984C165.113 188.666 165.718 183.764 167.022 186.648C166.689 186.619 166.354 186.619 166.021 186.648C161.749 186.118 157.074 186.648 152.777 186.648H34.2154C30.9695 186.648 30.9611 191.693 34.2154 191.693H164.676C167.459 191.693 168.611 191.265 170.419 189.061L184.328 172.176L215.955 133.771C217.292 132.148 216.51 129.465 214.172 129.465H83.7288C80.8444 129.465 79.726 129.953 77.8424 132.215L64.0597 148.975L32.4327 187.38C30.3809 189.869 33.9295 193.459 35.9982 190.953Z" fill="#1A1A1A"/>
<path d="M167.081 313.627V189.171L214.172 131.988V262.331L167.081 313.627Z" fill="white"/>
<path d="M169.603 313.652V229.14C169.603 216.433 170.327 203.483 169.603 190.794C169.444 188.01 170.041 190.575 168.964 190.794C169.805 190.583 171.487 187.733 172.017 187.085L186.363 169.661L215.955 133.729L211.649 132.013V258.488C211.649 259.169 211.246 261.481 211.649 262.053C212.154 262.76 211.868 260.666 212.305 260.657C212.061 260.657 211.33 261.717 211.17 261.893L197.715 276.584L165.323 311.861C163.128 314.257 166.685 317.831 168.889 315.435L196.933 284.884L213.045 267.334C214.878 265.333 216.653 263.971 216.72 261.179C217.477 229.762 216.72 198.227 216.72 166.802V132.013C216.72 129.978 213.853 128.482 212.415 130.222L187.01 161.076L170.705 180.871C168.847 183.133 165.054 186.286 164.583 189.28C164.087 192.459 164.583 196.125 164.583 199.329V313.652C164.558 316.873 169.603 316.873 169.603 313.652Z" fill="#1A1A1A"/>
<path d="M45.9883 200.195H155.308V302.594L45.9883 299.827V200.195Z" fill="white"/>
<path d="M45.9884 201.457H155.308L154.047 200.195V302.594L155.308 301.333L59.4431 298.911L45.9884 298.566L47.2498 299.827V200.195C47.2498 199.861 47.1169 199.54 46.8804 199.303C46.6438 199.067 46.323 198.934 45.9884 198.934C45.6539 198.934 45.3331 199.067 45.0965 199.303C44.8599 199.54 44.7271 199.861 44.7271 200.195V299.827C44.7314 300.161 44.8657 300.479 45.1013 300.714C45.3369 300.95 45.6552 301.084 45.9884 301.089L141.853 303.561L155.308 303.897C155.641 303.893 155.959 303.759 156.195 303.523C156.431 303.287 156.565 302.969 156.569 302.636V200.195C156.565 199.862 156.431 199.544 156.195 199.308C155.959 199.072 155.641 198.938 155.308 198.934H45.9884C45.6539 198.934 45.3331 199.067 45.0965 199.303C44.8599 199.54 44.7271 199.861 44.7271 200.195C44.7271 200.53 44.8599 200.851 45.0965 201.087C45.3331 201.324 45.6539 201.457 45.9884 201.457Z" fill="#1A1A1A"/>
<path d="M91.3979 71.442V195.898L205.763 157.216V32.7597L91.3979 71.442Z" fill="white"/>
<path d="M88.8752 71.4672V195.923C88.8754 196.312 88.9654 196.695 89.1381 197.043C89.3108 197.391 89.5615 197.695 89.8709 197.93C90.1802 198.165 90.5396 198.326 90.9212 198.399C91.3028 198.473 91.6962 198.457 92.0707 198.354L192.308 164.431L206.469 159.646C206.985 159.484 207.436 159.165 207.762 158.734C208.087 158.303 208.271 157.781 208.286 157.241V32.7849C208.287 32.3956 208.198 32.0113 208.026 31.6622C207.854 31.313 207.603 31.0084 207.294 30.7722C206.984 30.536 206.624 30.3747 206.242 30.3008C205.86 30.2269 205.466 30.2425 205.09 30.3463L104.853 64.2185L90.7253 69.0033C87.6643 70.0377 88.9846 74.8898 92.0707 73.8723L192.308 39.9748L206.469 35.19L203.24 32.7849V157.241L205.09 154.802L104.853 188.675L90.6916 193.459L93.9208 195.923V71.4672C93.9208 68.1961 88.8752 68.1876 88.8752 71.4672Z" fill="#1A1A1A"/>
<path d="M91.398 71.442L3.10144 41.1689L106.535 3.32753L205.763 32.7597L91.398 71.442Z" fill="white"/>
<path d="M92.0707 69.0033L14.8743 42.5312L3.77414 38.7302V43.5992L91.7764 11.4004C96.4435 9.71852 101.867 8.44032 106.274 6.09415C107.897 5.25323 105.559 5.38778 106.476 5.93438C107.846 6.7753 110.066 7.00235 111.588 7.45644L162.296 22.4921L205.09 35.19V30.321L104.853 64.2185L90.7252 69.0033C87.6643 70.0377 88.9845 74.8898 92.0707 73.8723L192.308 39.9748L206.469 35.19C207.004 35.0447 207.476 34.7277 207.812 34.2877C208.148 33.8477 208.331 33.3093 208.331 32.7555C208.331 32.2017 208.148 31.6633 207.812 31.2233C207.476 30.7833 207.004 30.4663 206.469 30.321L116.516 3.65549C113.539 2.77252 109.057 0.417948 105.862 0.888863C102.666 1.35978 98.9158 3.41162 95.7707 4.57209L42.7928 23.9637L2.42867 38.7302C1.89424 38.8755 1.42246 39.1925 1.0861 39.6325C0.749741 40.0725 0.567505 40.6109 0.567505 41.1647C0.567505 41.7185 0.749741 42.2569 1.0861 42.6969C1.42246 43.1369 1.89424 43.4539 2.42867 43.5992L79.6251 70.0713L90.7084 73.8723C93.803 74.9234 95.1232 70.0545 92.0707 69.0033Z" fill="#1A1A1A"/>
<path d="M91.398 71.442V195.898L3.10144 162.261V41.1689L91.398 71.442Z" fill="white"/>
<path d="M88.8752 71.4672V195.923L92.0707 193.485L14.6136 163.968L3.77419 159.823L5.62422 162.287V41.1941L2.42872 43.5992L79.6251 70.0713L90.7085 73.8723C93.7862 74.9234 95.1065 70.0545 92.0539 69.0033L14.8743 42.5312L3.77419 38.7302C3.39692 38.6258 3.00052 38.6106 2.61636 38.6859C2.2322 38.7611 1.87082 38.9247 1.56081 39.1637C1.2508 39.4028 1.00068 39.7107 0.830219 40.0631C0.659761 40.4155 0.573651 40.8027 0.578701 41.1941V162.287C0.59228 162.835 0.778378 163.365 1.11052 163.801C1.44267 164.237 1.90394 164.558 2.42872 164.717L79.8858 194.241L90.7253 198.37C92.2894 198.967 93.9208 197.445 93.9208 195.94V71.4672C93.9208 68.1961 88.8752 68.1876 88.8752 71.4672Z" fill="#1A1A1A"/>
<path d="M104.256 113.824C104.256 120.476 110.748 126.682 120.99 130.18C118.938 140.473 120.62 148.765 126.229 152.044C131.989 155.366 140.567 153.062 148.715 145.947C156.653 152.776 164.692 155.467 170.276 152.229C176.028 148.865 177.786 140.036 175.683 129.423C186.346 125.9 192.308 120.602 192.308 113.866C192.308 107.374 185.8 101.749 175.7 98.2757C177.962 87.2261 176.053 79.128 170.209 75.7643C164.583 72.5184 156.468 75.3523 148.412 82.3571C140.003 74.915 131.989 72.6445 126.162 76.025C120.536 79.271 118.938 87.7222 120.99 98.2001C111.092 101.606 104.256 107.358 104.256 113.824Z" fill="white"/>
<path d="M173.564 101.69C172.723 101.404 171.882 101.135 171.041 100.849C171.176 100.277 171.31 99.7053 171.428 99.1671C173.337 89.917 172.084 82.4665 167.829 80.011C163.751 77.6564 157.082 80.1119 150.346 85.9731C149.682 86.5533 149.035 87.1504 148.395 87.7642C147.975 87.3606 147.555 86.9233 147.1 86.5701C140.037 80.2969 132.965 77.6564 128.709 80.1119C124.639 82.4749 123.429 89.4797 125.144 98.2421C125.312 99.083 125.506 99.9744 125.724 100.832C124.724 101.118 123.756 101.421 122.831 101.749C114.548 104.633 109.259 109.157 109.259 113.85C109.259 118.693 114.935 123.554 123.555 126.505C124.253 126.741 124.959 126.96 125.665 127.161C125.438 128.086 125.228 129.02 125.052 129.953C123.42 138.573 124.698 145.409 128.76 147.755C132.965 150.177 140.003 147.688 146.865 141.692C147.412 141.213 147.95 140.709 148.496 140.187C149.186 140.851 149.892 141.491 150.607 142.113C157.259 147.831 163.818 150.144 167.88 147.789C172.084 145.359 173.438 138.018 171.672 129.079C171.538 128.389 171.378 127.7 171.201 126.985C171.697 126.842 172.177 126.69 172.656 126.531C181.62 123.562 187.448 118.761 187.448 113.85C187.448 109.14 181.99 104.599 173.547 101.681L173.564 101.69Z" fill="#333333"/>
<path d="M171.622 123.369L170.31 123.781C169.215 120.393 167.891 117.084 166.349 113.875C167.831 110.708 169.101 107.447 170.15 104.112C170.949 104.347 171.731 104.591 172.479 104.843C179.711 107.366 184.126 111.016 184.126 113.858C184.126 116.877 179.358 120.804 171.622 123.369ZM168.409 129.735C169.164 133.122 169.293 136.619 168.788 140.053C168.317 142.575 167.383 144.257 166.223 144.905C163.759 146.334 158.486 144.484 152.81 139.59C152.154 139.029 151.498 138.432 150.842 137.799C153.212 135.175 155.4 132.394 157.393 129.474C160.958 129.173 164.498 128.628 167.989 127.842C168.149 128.482 168.283 129.112 168.409 129.735ZM135.967 144.627C133.553 145.468 131.636 145.468 130.475 144.837C128.011 143.416 126.986 137.917 128.381 130.542C128.55 129.701 128.743 128.81 128.953 127.952C132.418 128.702 135.93 129.217 139.465 129.491C141.52 132.401 143.768 135.171 146.192 137.782C145.704 138.253 145.208 138.716 144.704 139.153C142.152 141.499 139.191 143.355 135.967 144.627ZM124.648 123.352C121.339 122.308 118.249 120.667 115.532 118.508C113.59 116.826 112.614 115.195 112.614 113.858C112.614 111.007 116.819 107.374 123.933 104.911C124.824 104.599 125.724 104.322 126.624 104.07C127.677 107.444 128.953 110.745 130.442 113.95C128.933 117.199 127.643 120.545 126.582 123.966C125.934 123.772 125.287 123.604 124.648 123.352ZM128.432 97.6114C126.96 90.102 127.936 84.4342 130.391 83.0131C133.007 81.4994 138.8 83.6606 144.889 89.0761C145.284 89.4209 145.671 89.7825 146.066 90.1525C143.668 92.7539 141.443 95.5096 139.406 98.4019C135.894 98.7223 132.408 99.2757 128.97 100.058C128.768 99.2596 128.592 98.4523 128.432 97.645V97.6114ZM162.161 105.945C161.399 104.627 160.606 103.324 159.781 102.035C162.178 102.33 164.558 102.745 166.912 103.279C166.24 105.44 165.399 107.694 164.39 110.007C163.666 108.627 162.91 107.274 162.136 105.937L162.161 105.945ZM148.404 92.5407C149.951 94.2225 151.49 96.0809 153.012 98.0991C149.926 97.9562 146.848 97.9562 143.762 98.0991C145.284 96.0978 146.84 94.2309 148.404 92.5407ZM134.562 105.995C133.797 107.332 133.057 108.678 132.359 110.04C131.384 107.736 130.551 105.466 129.836 103.313C132.065 102.808 134.445 102.405 136.925 102.094C136.118 103.344 135.33 104.627 134.562 105.945V105.995ZM137.035 125.959C134.614 125.697 132.208 125.31 129.828 124.798C130.517 122.57 131.367 120.257 132.351 117.903C133.057 119.265 133.797 120.613 134.571 121.948C135.361 123.268 136.185 124.605 137.035 125.925V125.959ZM148.496 135.377C146.915 133.695 145.334 131.786 143.796 129.751C145.292 129.81 146.814 129.835 148.37 129.835C149.926 129.835 151.54 129.835 153.088 129.735C151.656 131.693 150.123 133.577 148.496 135.377ZM164.474 117.718C165.467 119.965 166.346 122.26 167.106 124.597C164.696 125.139 162.26 125.555 159.807 125.841C160.648 124.529 161.438 123.209 162.212 121.864C162.985 120.518 163.751 119.114 164.474 117.718ZM159.285 120.241C158.102 122.292 156.849 124.308 155.526 126.287C153.214 126.455 150.809 126.539 148.37 126.539C145.931 126.539 143.569 126.463 141.29 126.32C139.936 124.344 138.666 122.326 137.463 120.257C136.261 118.189 135.159 116.095 134.1 113.95C135.126 111.815 136.247 109.715 137.463 107.652C138.649 105.592 139.919 103.582 141.256 101.614C143.585 101.438 145.965 101.345 148.379 101.345C150.792 101.345 153.189 101.438 155.51 101.614C156.838 103.571 158.094 105.578 159.277 107.635C160.46 109.693 161.581 111.784 162.641 113.908C161.598 116.056 160.477 118.166 159.277 120.241H159.285ZM166.172 82.929C168.788 84.4426 169.814 90.4972 168.165 98.5196C168.056 99.041 167.938 99.5539 167.812 100.075C164.369 99.2844 160.877 98.7225 157.36 98.3935C155.34 95.5014 153.132 92.7457 150.75 90.144C151.33 89.5806 151.936 89.034 152.55 88.4622C158.318 83.4167 163.717 81.4573 166.172 82.8701V82.929Z" fill="white"/>
<path d="M148.37 106.878C149.751 106.878 151.1 107.288 152.248 108.055C153.396 108.822 154.29 109.912 154.819 111.187C155.347 112.462 155.485 113.866 155.216 115.22C154.946 116.574 154.282 117.817 153.306 118.793C152.329 119.769 151.086 120.434 149.732 120.704C148.378 120.973 146.975 120.835 145.699 120.306C144.424 119.778 143.334 118.883 142.567 117.736C141.8 116.588 141.391 115.238 141.391 113.858C141.39 112.941 141.569 112.033 141.92 111.186C142.27 110.338 142.784 109.569 143.432 108.92C144.081 108.272 144.851 107.758 145.698 107.407C146.545 107.057 147.453 106.877 148.37 106.878Z" fill="#333333"/>
<path d="M124.194 262.785V280.722C124.248 282.332 124.098 283.942 123.748 285.515C123.487 286.634 122.963 287.675 122.218 288.551C121.537 289.355 120.682 289.995 119.717 290.42C118.753 290.846 117.704 291.046 116.651 291.006C114.923 291.01 113.227 290.539 111.748 289.644L113.8 286.07C114.628 286.686 115.62 287.044 116.651 287.096C117.175 287.144 117.702 287.035 118.163 286.781C118.625 286.528 119 286.143 119.241 285.675C119.745 284.733 119.989 283.076 119.989 280.722V262.785H124.194Z" fill="black"/>
<path d="M146.512 266.914L143.148 268.924C142.726 268.07 142.103 267.331 141.332 266.771C140.633 266.358 139.83 266.157 139.019 266.191C137.966 266.154 136.936 266.507 136.126 267.183C135.761 267.475 135.468 267.846 135.268 268.269C135.069 268.691 134.968 269.154 134.974 269.622C134.974 270.978 135.981 272.069 137.993 272.893L140.76 274.02C142.664 274.703 144.363 275.861 145.696 277.383C146.763 278.758 147.316 280.462 147.26 282.202C147.303 283.372 147.1 284.538 146.666 285.626C146.231 286.713 145.575 287.698 144.737 288.517C143.901 289.346 142.904 289.997 141.809 290.431C140.713 290.865 139.541 291.072 138.363 291.04C136.177 291.123 134.044 290.357 132.41 288.904C130.772 287.3 129.748 285.172 129.517 282.891L133.721 281.958C133.769 283.145 134.113 284.302 134.722 285.321C135.135 285.839 135.65 286.265 136.236 286.573C136.822 286.88 137.466 287.063 138.126 287.109C138.786 287.155 139.448 287.063 140.071 286.839C140.694 286.615 141.264 286.265 141.744 285.809C142.173 285.372 142.51 284.852 142.732 284.281C142.955 283.71 143.059 283.1 143.039 282.488C143.045 281.985 142.968 281.485 142.812 281.008C142.663 280.553 142.426 280.133 142.114 279.771C141.757 279.362 141.344 279.005 140.886 278.712C140.316 278.342 139.713 278.024 139.087 277.762L136.387 276.652C132.597 275.043 130.7 272.696 130.694 269.613C130.678 268.62 130.884 267.635 131.297 266.732C131.711 265.828 132.32 265.029 133.082 264.391C134.725 262.959 136.849 262.202 139.028 262.272C142.223 262.255 144.718 263.802 146.512 266.914Z" fill="black"/>
</g>
<defs>
<clipPath id="clip0_1_1229">
<rect width="216.453" height="461.69" fill="white" transform="translate(0.578613 0.830002)"/>
</clipPath>
</defs>
</svg>
