<svg width="27" height="28" viewBox="0 0 27 28" fill="none" xmlns="http://www.w3.org/2000/svg">
<g id="Img">
<path id="Vector" d="M15.1611 1.8475C8.64844 1.8475 3.375 7.13676 3.375 13.66C3.375 20.1832 8.64844 25.4725 15.1611 25.4725C18.3568 25.4725 21.252 24.1963 23.3771 22.1291C23.6408 21.8707 23.7094 21.47 23.5406 21.143C23.3719 20.8161 23.008 20.6315 22.6441 20.6948C22.1273 20.7844 21.6 20.8319 21.0568 20.8319C15.9469 20.8319 11.802 16.6764 11.802 11.5506C11.802 8.0807 13.7004 5.05902 16.5111 3.46645C16.8328 3.28187 16.9963 2.91273 16.9172 2.55414C16.8381 2.19555 16.5322 1.9266 16.1631 1.89496C15.8309 1.86859 15.4986 1.85277 15.1611 1.85277V1.8475Z" fill="#33332D"/>
</g>
</svg>
