<svg width="27" height="28" viewBox="0 0 27 28" fill="none" xmlns="http://www.w3.org/2000/svg">
<g id="Img">
<path id="Vector" d="M17.4375 15.91H16.5487L16.2338 15.6062C17.3363 14.3237 18 12.6587 18 10.8475C18 6.80875 14.7262 3.535 10.6875 3.535C6.64875 3.535 3.375 6.80875 3.375 10.8475C3.375 14.8862 6.64875 18.16 10.6875 18.16C12.4987 18.16 14.1637 17.4963 15.4462 16.3938L15.75 16.7087V17.5975L21.375 23.2113L23.0513 21.535L17.4375 15.91ZM10.6875 15.91C7.88625 15.91 5.625 13.6488 5.625 10.8475C5.625 8.04625 7.88625 5.785 10.6875 5.785C13.4888 5.785 15.75 8.04625 15.75 10.8475C15.75 13.6488 13.4888 15.91 10.6875 15.91Z" fill="#33332D"/>
</g>
</svg>
